{"title":"Chhodo Kal Ki Baatein 2012 Hindi DvDrip Xvid ...Hon3y","uid":7578423,"size":796804313,"categoryP":"video","categoryS":"movies","magnet":"?xt=urn:btih:b7bd0ee101a76efa059918decf2080fc4dc48b4c&amp;dn=Chhodo+Kal+Ki+Baatein+2012+Hindi+DvDrip+Xvid+...Hon3y&amp;tr=udp%3A%2F%2Ftracker.openbittorrent.com%3A80&amp;tr=udp%3A%2F%2Fopen.demonii.com%3A1337&amp;tr=udp%3A%2F%2Ftracker.coppersurfer.tk%3A6969&amp;tr=udp%3A%2F%2Fexodus.desync.com%3A6969","seeders":0,"leechers":0,"uploader":"honey8ee","files":-1,"time":1346173905,"description":" &lt;a href=&quot;http://www.imdb.com/title/tt2343417/&quot; rel=&quot;nofollow&quot; target=&quot;_NEW&quot;&gt;http://www.imdb.com/title/tt2343417/&lt;/a&gt;\nFormat : AVI\nFormat/Info : Audio Video Interleave\nFile size : 753 MiB\nDuration : 2h 12mn\nOverall bit rate : 792 Kbps\n\nVideo\nID : 0\nFormat : MPEG-4 Visual\nFormat profile : Advanced Simple@L5\nCodec ID : XVID\nCodec ID/Hint : XviD\nDuration : 2h 12mn\nBit rate : 690 Kbps\nWidth : 688 pixels\nHeight : 288 pixels\nDisplay aspect ratio : 2.40:1\nFrame rate : 23.976 fps\nStream size : 656 MiB (87%)\n\n\nAudio\n\nCodec ID/Hint : MP3\nDuration : 2h 12mn\nBit rate mode : Constant\nBit rate : 96.0 Kbps\nChannel(s) : 2 channels\nCompression mode : Lossy\nStream size : 91.3 MiB (12%)\n\n &lt;a href=&quot;\nhttp://www.shotpix.com/images/85878491130044337440.png&quot; rel=&quot;nofollow&quot; target=&quot;_NEW&quot;&gt;\nhttp://www.shotpix.com/images/85878491130044337440.png&lt;/a&gt;\n &lt;a href=&quot;\nhttp://www.shotpix.com/images/58769526894265813192.png&quot; rel=&quot;nofollow&quot; target=&quot;_NEW&quot;&gt;\nhttp://www.shotpix.com/images/58769526894265813192.png&lt;/a&gt;\n &lt;a href=&quot;\nhttp://www.shotpix.com/images/38070632467705192942.png&quot; rel=&quot;nofollow&quot; target=&quot;_NEW&quot;&gt;\nhttp://www.shotpix.com/images/38070632467705192942.png&lt;/a&gt;\n &lt;a href=&quot;\nhttp://www.shotpix.com/images/21945948083749705617.png&quot; rel=&quot;nofollow&quot; target=&quot;_NEW&quot;&gt;\nhttp://www.shotpix.com/images/21945948083749705617.png&lt;/a&gt;\n &lt;a href=&quot;\nhttp://www.shotpix.com/images/05009615851885532458.png&quot; rel=&quot;nofollow&quot; target=&quot;_NEW&quot;&gt;\nhttp://www.shotpix.com/images/05009615851885532458.png&lt;/a&gt;\n &lt;a href=&quot;\nhttp://www.shotpix.com/images/50890896313769601812.png&quot; rel=&quot;nofollow&quot; target=&quot;_NEW&quot;&gt;\nhttp://www.shotpix.com/images/50890896313769601812.png&lt;/a&gt;","torrent":{"xt":"urn:btih:b7bd0ee101a76efa059918decf2080fc4dc48b4c","amp;dn":"Chhodo+Kal+Ki+Baatein+2012+Hindi+DvDrip+Xvid+...Hon3y","amp;tr":["udp%3A%2F%2Ftracker.openbittorrent.com%3A80","udp%3A%2F%2Fopen.demonii.com%3A1337","udp%3A%2F%2Ftracker.coppersurfer.tk%3A6969","udp%3A%2F%2Fexodus.desync.com%3A6969"],"infoHash":"b7bd0ee101a76efa059918decf2080fc4dc48b4c","infoHashBuffer":{"type":"Buffer","data":[183,189,14,225,1,167,110,250,5,153,24,222,207,32,128,252,77,196,139,76]},"announce":[],"urlList":[]}}